<mxfile host="app.diagrams.net" modified="2023-11-17T01:54:22.297Z" agent="Mozilla/5.0 (Windows NT 10.0; Win64; x64) AppleWebKit/537.36 (KHTML, like Gecko) Chrome/119.0.0.0 Safari/537.36" etag="k3Nhgz_nWZOyiWSZ2fRy" version="22.1.2" type="github">
  <diagram id="C5RBs43oDa-KdzZeNtuy" name="Page-1">
    <mxGraphModel dx="1400" dy="696" grid="0" gridSize="10" guides="1" tooltips="1" connect="1" arrows="1" fold="1" page="1" pageScale="1" pageWidth="827" pageHeight="1169" math="0" shadow="0">
      <root>
        <mxCell id="WIyWlLk6GJQsqaUBKTNV-0" />
        <mxCell id="WIyWlLk6GJQsqaUBKTNV-1" parent="WIyWlLk6GJQsqaUBKTNV-0" />
        <mxCell id="nWHbVouoJnxypw-nV6z2-2" value="" style="edgeStyle=orthogonalEdgeStyle;rounded=0;orthogonalLoop=1;jettySize=auto;html=1;exitX=1;exitY=0.5;exitDx=0;exitDy=0;" edge="1" parent="WIyWlLk6GJQsqaUBKTNV-1" source="nWHbVouoJnxypw-nV6z2-7" target="nWHbVouoJnxypw-nV6z2-1">
          <mxGeometry relative="1" as="geometry">
            <mxPoint x="200" y="210" as="sourcePoint" />
          </mxGeometry>
        </mxCell>
        <mxCell id="nWHbVouoJnxypw-nV6z2-4" value="" style="edgeStyle=orthogonalEdgeStyle;rounded=0;orthogonalLoop=1;jettySize=auto;html=1;" edge="1" parent="WIyWlLk6GJQsqaUBKTNV-1" source="nWHbVouoJnxypw-nV6z2-1" target="nWHbVouoJnxypw-nV6z2-3">
          <mxGeometry relative="1" as="geometry" />
        </mxCell>
        <mxCell id="nWHbVouoJnxypw-nV6z2-1" value="%visibilidad de diente en un período de tiempo" style="whiteSpace=wrap;html=1;rounded=0;" vertex="1" parent="WIyWlLk6GJQsqaUBKTNV-1">
          <mxGeometry x="139.92000000000002" y="170" width="120" height="60" as="geometry" />
        </mxCell>
        <mxCell id="nWHbVouoJnxypw-nV6z2-6" value="" style="edgeStyle=orthogonalEdgeStyle;rounded=0;orthogonalLoop=1;jettySize=auto;html=1;" edge="1" parent="WIyWlLk6GJQsqaUBKTNV-1" source="nWHbVouoJnxypw-nV6z2-3" target="nWHbVouoJnxypw-nV6z2-12">
          <mxGeometry relative="1" as="geometry">
            <mxPoint x="199.92000000000002" y="410" as="targetPoint" />
          </mxGeometry>
        </mxCell>
        <mxCell id="nWHbVouoJnxypw-nV6z2-25" value="SI" style="edgeLabel;html=1;align=center;verticalAlign=middle;resizable=0;points=[];" vertex="1" connectable="0" parent="nWHbVouoJnxypw-nV6z2-6">
          <mxGeometry x="-0.264" y="-4" relative="1" as="geometry">
            <mxPoint as="offset" />
          </mxGeometry>
        </mxCell>
        <mxCell id="nWHbVouoJnxypw-nV6z2-30" style="edgeStyle=orthogonalEdgeStyle;rounded=0;orthogonalLoop=1;jettySize=auto;html=1;entryX=0;entryY=0.5;entryDx=0;entryDy=0;exitX=0;exitY=0.5;exitDx=0;exitDy=0;" edge="1" parent="WIyWlLk6GJQsqaUBKTNV-1" source="nWHbVouoJnxypw-nV6z2-3" target="nWHbVouoJnxypw-nV6z2-11">
          <mxGeometry relative="1" as="geometry">
            <Array as="points">
              <mxPoint x="79.92" y="320" />
              <mxPoint x="79.92" y="570" />
            </Array>
          </mxGeometry>
        </mxCell>
        <mxCell id="nWHbVouoJnxypw-nV6z2-31" value="NO" style="edgeLabel;html=1;align=center;verticalAlign=middle;resizable=0;points=[];" vertex="1" connectable="0" parent="nWHbVouoJnxypw-nV6z2-30">
          <mxGeometry x="-0.0471" y="-1" relative="1" as="geometry">
            <mxPoint as="offset" />
          </mxGeometry>
        </mxCell>
        <mxCell id="nWHbVouoJnxypw-nV6z2-3" value="&amp;lt; drop_det_missing" style="rhombus;whiteSpace=wrap;html=1;rounded=0;" vertex="1" parent="WIyWlLk6GJQsqaUBKTNV-1">
          <mxGeometry x="129.92000000000002" y="280" width="140" height="80" as="geometry" />
        </mxCell>
        <mxCell id="nWHbVouoJnxypw-nV6z2-10" style="edgeStyle=orthogonalEdgeStyle;rounded=0;orthogonalLoop=1;jettySize=auto;html=1;exitX=0.5;exitY=1;exitDx=0;exitDy=0;" edge="1" parent="WIyWlLk6GJQsqaUBKTNV-1" source="nWHbVouoJnxypw-nV6z2-12" target="nWHbVouoJnxypw-nV6z2-11">
          <mxGeometry relative="1" as="geometry">
            <mxPoint x="199.92000000000002" y="470" as="sourcePoint" />
            <mxPoint x="199.92000000000002" y="510" as="targetPoint" />
          </mxGeometry>
        </mxCell>
        <mxCell id="nWHbVouoJnxypw-nV6z2-7" value="INICIO" style="ellipse;whiteSpace=wrap;html=1;" vertex="1" parent="WIyWlLk6GJQsqaUBKTNV-1">
          <mxGeometry x="30" y="70" width="120" height="80" as="geometry" />
        </mxCell>
        <mxCell id="nWHbVouoJnxypw-nV6z2-33" value="" style="edgeStyle=orthogonalEdgeStyle;rounded=0;orthogonalLoop=1;jettySize=auto;html=1;" edge="1" parent="WIyWlLk6GJQsqaUBKTNV-1" source="nWHbVouoJnxypw-nV6z2-11" target="nWHbVouoJnxypw-nV6z2-34">
          <mxGeometry relative="1" as="geometry">
            <mxPoint x="199.92000000000002" y="700" as="targetPoint" />
          </mxGeometry>
        </mxCell>
        <mxCell id="nWHbVouoJnxypw-nV6z2-35" value="SI" style="edgeLabel;html=1;align=center;verticalAlign=middle;resizable=0;points=[];" vertex="1" connectable="0" parent="nWHbVouoJnxypw-nV6z2-33">
          <mxGeometry x="-0.2067" relative="1" as="geometry">
            <mxPoint as="offset" />
          </mxGeometry>
        </mxCell>
        <mxCell id="nWHbVouoJnxypw-nV6z2-41" value="" style="edgeStyle=orthogonalEdgeStyle;rounded=0;orthogonalLoop=1;jettySize=auto;html=1;" edge="1" parent="WIyWlLk6GJQsqaUBKTNV-1" source="nWHbVouoJnxypw-nV6z2-11" target="nWHbVouoJnxypw-nV6z2-40">
          <mxGeometry relative="1" as="geometry">
            <Array as="points">
              <mxPoint x="435" y="570" />
            </Array>
          </mxGeometry>
        </mxCell>
        <mxCell id="nWHbVouoJnxypw-nV6z2-42" value="NO" style="edgeLabel;html=1;align=center;verticalAlign=middle;resizable=0;points=[];" vertex="1" connectable="0" parent="nWHbVouoJnxypw-nV6z2-41">
          <mxGeometry x="-0.1747" y="3" relative="1" as="geometry">
            <mxPoint as="offset" />
          </mxGeometry>
        </mxCell>
        <mxCell id="nWHbVouoJnxypw-nV6z2-11" value="&amp;lt; drop_det_broken" style="rhombus;whiteSpace=wrap;html=1;rounded=0;" vertex="1" parent="WIyWlLk6GJQsqaUBKTNV-1">
          <mxGeometry x="134.92000000000002" y="530" width="130" height="80" as="geometry" />
        </mxCell>
        <mxCell id="nWHbVouoJnxypw-nV6z2-14" style="edgeStyle=orthogonalEdgeStyle;rounded=0;orthogonalLoop=1;jettySize=auto;html=1;exitX=1;exitY=0.5;exitDx=0;exitDy=0;entryX=0;entryY=0.5;entryDx=0;entryDy=0;" edge="1" parent="WIyWlLk6GJQsqaUBKTNV-1" source="nWHbVouoJnxypw-nV6z2-12" target="nWHbVouoJnxypw-nV6z2-13">
          <mxGeometry relative="1" as="geometry" />
        </mxCell>
        <mxCell id="nWHbVouoJnxypw-nV6z2-12" value="Activa estado de alerta de ausencia corta" style="shape=process;whiteSpace=wrap;html=1;backgroundOutline=1;" vertex="1" parent="WIyWlLk6GJQsqaUBKTNV-1">
          <mxGeometry x="139.92000000000002" y="410" width="120" height="60" as="geometry" />
        </mxCell>
        <mxCell id="nWHbVouoJnxypw-nV6z2-13" value="Evento de &lt;br&gt;ausencia corta" style="shape=parallelogram;perimeter=parallelogramPerimeter;whiteSpace=wrap;html=1;fixedSize=1;" vertex="1" parent="WIyWlLk6GJQsqaUBKTNV-1">
          <mxGeometry x="289.92" y="410" width="120" height="60" as="geometry" />
        </mxCell>
        <mxCell id="nWHbVouoJnxypw-nV6z2-55" style="edgeStyle=orthogonalEdgeStyle;rounded=0;orthogonalLoop=1;jettySize=auto;html=1;exitX=0.5;exitY=1;exitDx=0;exitDy=0;entryX=0;entryY=0.5;entryDx=0;entryDy=0;" edge="1" parent="WIyWlLk6GJQsqaUBKTNV-1" source="nWHbVouoJnxypw-nV6z2-24" target="nWHbVouoJnxypw-nV6z2-40">
          <mxGeometry relative="1" as="geometry">
            <Array as="points">
              <mxPoint x="200" y="950" />
            </Array>
          </mxGeometry>
        </mxCell>
        <mxCell id="nWHbVouoJnxypw-nV6z2-24" value="Activa estado de alerta de caída" style="shape=process;whiteSpace=wrap;html=1;backgroundOutline=1;" vertex="1" parent="WIyWlLk6GJQsqaUBKTNV-1">
          <mxGeometry x="139.92000000000002" y="790" width="120" height="60" as="geometry" />
        </mxCell>
        <mxCell id="nWHbVouoJnxypw-nV6z2-36" style="edgeStyle=orthogonalEdgeStyle;rounded=0;orthogonalLoop=1;jettySize=auto;html=1;entryX=0.5;entryY=0;entryDx=0;entryDy=0;" edge="1" parent="WIyWlLk6GJQsqaUBKTNV-1" source="nWHbVouoJnxypw-nV6z2-34" target="nWHbVouoJnxypw-nV6z2-24">
          <mxGeometry relative="1" as="geometry">
            <mxPoint x="199.92000000000002" y="790" as="targetPoint" />
          </mxGeometry>
        </mxCell>
        <mxCell id="nWHbVouoJnxypw-nV6z2-38" style="edgeStyle=orthogonalEdgeStyle;rounded=0;orthogonalLoop=1;jettySize=auto;html=1;exitX=1;exitY=0.5;exitDx=0;exitDy=0;" edge="1" parent="WIyWlLk6GJQsqaUBKTNV-1" source="nWHbVouoJnxypw-nV6z2-24" target="nWHbVouoJnxypw-nV6z2-37">
          <mxGeometry relative="1" as="geometry">
            <mxPoint x="200" y="850" as="sourcePoint" />
          </mxGeometry>
        </mxCell>
        <mxCell id="nWHbVouoJnxypw-nV6z2-34" value="Desactiva estado de alerta de ausencia corta" style="shape=process;whiteSpace=wrap;html=1;backgroundOutline=1;" vertex="1" parent="WIyWlLk6GJQsqaUBKTNV-1">
          <mxGeometry x="139.92000000000002" y="680" width="120" height="60" as="geometry" />
        </mxCell>
        <mxCell id="nWHbVouoJnxypw-nV6z2-37" value="Evento de &lt;br&gt;caída" style="shape=parallelogram;perimeter=parallelogramPerimeter;whiteSpace=wrap;html=1;fixedSize=1;" vertex="1" parent="WIyWlLk6GJQsqaUBKTNV-1">
          <mxGeometry x="289.92" y="790" width="120" height="60" as="geometry" />
        </mxCell>
        <mxCell id="nWHbVouoJnxypw-nV6z2-51" style="edgeStyle=orthogonalEdgeStyle;rounded=0;orthogonalLoop=1;jettySize=auto;html=1;exitX=0.5;exitY=1;exitDx=0;exitDy=0;entryX=0;entryY=0.5;entryDx=0;entryDy=0;" edge="1" parent="WIyWlLk6GJQsqaUBKTNV-1" source="nWHbVouoJnxypw-nV6z2-40" target="nWHbVouoJnxypw-nV6z2-43">
          <mxGeometry relative="1" as="geometry" />
        </mxCell>
        <mxCell id="nWHbVouoJnxypw-nV6z2-52" value="NO" style="edgeLabel;html=1;align=center;verticalAlign=middle;resizable=0;points=[];" vertex="1" connectable="0" parent="nWHbVouoJnxypw-nV6z2-51">
          <mxGeometry x="0.0286" y="1" relative="1" as="geometry">
            <mxPoint as="offset" />
          </mxGeometry>
        </mxCell>
        <mxCell id="nWHbVouoJnxypw-nV6z2-53" style="edgeStyle=orthogonalEdgeStyle;rounded=0;orthogonalLoop=1;jettySize=auto;html=1;exitX=1;exitY=0.5;exitDx=0;exitDy=0;entryX=1;entryY=0.5;entryDx=0;entryDy=0;" edge="1" parent="WIyWlLk6GJQsqaUBKTNV-1" source="nWHbVouoJnxypw-nV6z2-40" target="nWHbVouoJnxypw-nV6z2-1">
          <mxGeometry relative="1" as="geometry">
            <Array as="points">
              <mxPoint x="560" y="950" />
              <mxPoint x="560" y="200" />
            </Array>
          </mxGeometry>
        </mxCell>
        <mxCell id="nWHbVouoJnxypw-nV6z2-54" value="SI" style="edgeLabel;html=1;align=center;verticalAlign=middle;resizable=0;points=[];" vertex="1" connectable="0" parent="nWHbVouoJnxypw-nV6z2-53">
          <mxGeometry x="-0.3722" y="2" relative="1" as="geometry">
            <mxPoint as="offset" />
          </mxGeometry>
        </mxCell>
        <mxCell id="nWHbVouoJnxypw-nV6z2-40" value="&amp;lt; drop_det_recover" style="rhombus;whiteSpace=wrap;html=1;rounded=0;" vertex="1" parent="WIyWlLk6GJQsqaUBKTNV-1">
          <mxGeometry x="370" y="910" width="130" height="80" as="geometry" />
        </mxCell>
        <mxCell id="nWHbVouoJnxypw-nV6z2-48" style="edgeStyle=orthogonalEdgeStyle;rounded=0;orthogonalLoop=1;jettySize=auto;html=1;" edge="1" parent="WIyWlLk6GJQsqaUBKTNV-1" source="nWHbVouoJnxypw-nV6z2-43" target="nWHbVouoJnxypw-nV6z2-47">
          <mxGeometry relative="1" as="geometry" />
        </mxCell>
        <mxCell id="nWHbVouoJnxypw-nV6z2-43" value="Desactiva estados de alerta" style="shape=process;whiteSpace=wrap;html=1;backgroundOutline=1;" vertex="1" parent="WIyWlLk6GJQsqaUBKTNV-1">
          <mxGeometry x="500" y="1060" width="120" height="60" as="geometry" />
        </mxCell>
        <mxCell id="nWHbVouoJnxypw-nV6z2-47" value="FIN" style="ellipse;whiteSpace=wrap;html=1;" vertex="1" parent="WIyWlLk6GJQsqaUBKTNV-1">
          <mxGeometry x="670" y="1050" width="120" height="80" as="geometry" />
        </mxCell>
      </root>
    </mxGraphModel>
  </diagram>
</mxfile>
